<svg width="52" height="52" viewBox="0 0 52 52" fill="none" xmlns="http://www.w3.org/2000/svg">
<path d="M37.375 37.375H14.1781L8.51094 6.21563C8.44463 5.84247 8.24998 5.50423 7.96066 5.25942C7.67134 5.01461 7.30554 4.87863 6.92656 4.875H3.25" stroke="#C21010" stroke-width="2" stroke-linecap="round" stroke-linejoin="round"/>
<path d="M16.25 45.5C18.4937 45.5 20.3125 43.6812 20.3125 41.4375C20.3125 39.1938 18.4937 37.375 16.25 37.375C14.0063 37.375 12.1875 39.1938 12.1875 41.4375C12.1875 43.6812 14.0063 45.5 16.25 45.5Z" stroke="#C21010" stroke-width="2" stroke-linecap="round" stroke-linejoin="round"/>
<path d="M37.375 45.5C39.6187 45.5 41.4375 43.6812 41.4375 41.4375C41.4375 39.1938 39.6187 37.375 37.375 37.375C35.1313 37.375 33.3125 39.1938 33.3125 41.4375C33.3125 43.6812 35.1313 45.5 37.375 45.5Z" stroke="#C21010" stroke-width="2" stroke-linecap="round" stroke-linejoin="round"/>
<path d="M12.6953 29.25H38.2078C38.9674 29.2523 39.7036 28.9868 40.2868 28.5001C40.8701 28.0135 41.2631 27.3368 41.3969 26.5891L43.875 13H9.75" stroke="#C21010" stroke-width="2" stroke-linecap="round" stroke-linejoin="round"/>
</svg>
